# Blender v3.3.1 OBJ File: ''
# www.blender.org
mtllib Doragon_neck.mtl
o 首_立方体
v -0.119388 -0.121237 0.085968
v -0.119388 0.087126 0.085058
v -0.119388 -0.061822 -0.064745
v -0.119388 0.087126 -0.063835
v 0.119388 -0.121237 0.085968
v 0.119388 0.087126 0.085058
v 0.119388 -0.061822 -0.064745
v 0.119388 0.087126 -0.063835
v -0.000000 -0.037458 -0.126545
v -0.000000 0.087126 -0.124888
v 0.000000 -0.145601 0.147768
v 0.000000 0.087126 0.146111
v 0.067750 0.087126 -0.107929
v 0.067750 -0.138833 0.130601
v 0.067750 -0.044226 -0.109378
v 0.067750 0.087126 0.129152
v -0.067750 -0.044226 -0.109378
v -0.067750 0.087126 0.129152
v -0.067750 0.087126 -0.107929
v -0.067750 -0.138833 0.130601
v -0.135500 -0.091530 0.010612
v -0.135500 0.087126 0.010612
v 0.135500 -0.091530 0.010612
v 0.135500 0.087126 0.010611
v 0.000000 0.087126 0.010612
v 0.000000 -0.091530 0.010612
v 0.067750 0.087126 0.010611
v 0.067750 -0.091530 0.010612
v -0.067750 -0.091530 0.010612
v -0.067750 0.087126 0.010612
v -0.128564 -0.017056 0.091269
v -0.128564 0.012652 -0.070046
v 0.128564 0.012652 -0.070046
v 0.128564 -0.017056 0.091269
v 0.000000 -0.029237 0.157417
v -0.000000 0.024834 -0.136194
v 0.072957 -0.025854 0.139043
v 0.072957 0.021450 -0.117820
v -0.072957 0.021450 -0.117820
v -0.072957 -0.025854 0.139043
v 0.145914 -0.002202 0.010612
v -0.145914 -0.002202 0.010612
v -0.120597 0.087126 -0.060165
v 0.127444 -0.076676 -0.027067
v -0.127444 -0.076676 -0.027066
v 0.120597 0.087126 -0.060165
v -0.000000 0.087126 -0.004083
v -0.000000 -0.064494 -0.057967
v 0.067750 0.087126 -0.025485
v 0.067750 -0.067878 -0.049383
v -0.067750 -0.067878 -0.049383
v -0.067750 0.087126 -0.025485
v 0.137239 0.005225 -0.029717
v -0.137239 0.005225 -0.029717
vt 0.480213 0.782140
vt 0.475012 0.733544
vt 0.498169 0.728699
vt 0.768667 0.227170
vt 0.823397 0.261438
vt 0.765984 0.271669
vt 0.223350 0.748348
vt 0.186346 0.809104
vt 0.178125 0.741508
vt 0.342646 0.798104
vt 0.304034 0.730245
vt 0.341010 0.724356
vt 0.266386 0.587063
vt 0.286128 0.638644
vt 0.252130 0.660301
vt 0.387121 0.533735
vt 0.434497 0.514077
vt 0.452712 0.547930
vt 0.379009 0.571222
vt 0.436486 0.622904
vt 0.370896 0.608709
vt 0.228737 0.579735
vt 0.176833 0.645644
vt 0.191089 0.572406
vt 0.421273 0.724356
vt 0.382183 0.798051
vt 0.383598 0.722091
vt 0.811783 0.131935
vt 0.766742 0.176262
vt 0.760302 0.131555
vt 0.445473 0.730245
vt 0.417180 0.798104
vt 0.405904 0.646196
vt 0.362783 0.646196
vt 0.212442 0.663451
vt 0.819551 0.220726
vt 0.736544 0.473348
vt 0.697586 0.422167
vt 0.732871 0.415296
vt 0.153440 0.612816
vt 0.153440 0.565078
vt 0.453983 0.587448
vt 0.370878 0.569462
vt 0.162393 0.542952
vt 0.273514 0.550444
vt 0.236885 0.537877
vt 0.350923 0.604387
vt 0.325406 0.629475
vt 0.198217 0.535787
vt 0.367148 0.529412
vt 0.395234 0.496248
vt 0.304034 0.570522
vt 0.246768 0.751722
vt 0.227518 0.806489
vt 0.562093 0.782151
vt 0.521327 0.723853
vt 0.566030 0.714172
vt 0.520848 0.665570
vt 0.562619 0.646196
vt 0.242351 0.698458
vt 0.220148 0.690152
vt 0.342648 0.650666
vt 0.382208 0.646196
vt 0.702991 0.370979
vt 0.735941 0.357251
vt 0.718579 0.182105
vt 0.717554 0.229648
vt 0.177238 0.673453
vt 0.153440 0.737336
vt 0.153775 0.663451
vt 0.709786 0.140856
vt 0.417183 0.650666
vt 0.308283 0.662285
vt 0.707751 0.271669
vt 0.477581 0.684953
vt 0.499215 0.675262
vt 0.264553 0.706764
vt 0.270185 0.755096
vt 0.268062 0.803923
vt 0.611100 0.290282
vt 0.574641 0.294810
vt 0.583156 0.251066
vt 0.668533 0.230069
vt 0.686494 0.269686
vt 0.632001 0.257893
vt 0.611100 0.300248
vt 0.667111 0.359248
vt 0.612618 0.347455
vt 0.493208 0.233558
vt 0.530885 0.279797
vt 0.484693 0.277302
vt 0.634377 0.387895
vt 0.636629 0.389218
vt 0.540618 0.229795
vt 0.452595 0.259429
vt 0.441900 0.285860
vt 0.690949 0.317529
vt 0.520838 0.782141
vt 0.478086 0.782140
vt 0.308338 0.798241
vt 0.304034 0.594391
vt 0.815326 0.173687
vt 0.439683 0.798241
vt 0.703958 0.473361
vt 0.354288 0.496019
vt 0.270185 0.803789
vt 0.611100 0.318795
vt 0.671131 0.229795
vn -0.9741 0.1289 -0.1858
vn 0.6579 0.1427 -0.7395
vn 0.9690 0.0989 0.2266
vn -0.6398 0.0962 0.7625
vn -0.0000 -0.9303 -0.3668
vn 0.0000 1.0000 0.0000
vn 0.2390 0.0939 0.9665
vn -0.2481 0.1635 -0.9549
vn 0.6398 0.0962 0.7625
vn 0.2481 0.1635 -0.9549
vn -0.6579 0.1427 -0.7395
vn -0.2390 0.0939 0.9665
vn 0.9754 0.1137 -0.1889
vn -0.9690 0.0989 0.2266
vn -0.9805 -0.0951 0.1721
vn 0.9618 -0.1121 -0.2498
vn -0.2523 -0.0800 0.9643
vn -0.6222 -0.1316 -0.7717
vn 0.2298 -0.1420 -0.9628
vn 0.6681 -0.0860 0.7391
vn -0.2298 -0.1420 -0.9628
vn 0.2523 -0.0800 0.9643
vn -0.6681 -0.0860 0.7391
vn 0.9805 -0.0951 0.1721
vn 0.6222 -0.1316 -0.7717
vn -0.9595 -0.1230 -0.2536
vn -0.9618 -0.1121 -0.2498
vn 0.9595 -0.1230 -0.2536
vn 0.9741 0.1289 -0.1858
vn -0.9754 0.1137 -0.1889
vn -0.9403 0.1417 -0.3095
vn 0.6406 0.1638 -0.7502
vn 0.9711 0.1132 0.2102
vn -0.6460 0.1020 0.7565
vn 0.2417 0.0957 0.9656
vn -0.2392 0.1734 -0.9554
vn 0.6460 0.1020 0.7565
vn 0.2392 0.1734 -0.9554
vn -0.6406 0.1638 -0.7502
vn -0.2417 0.0957 0.9656
vn 0.9713 0.1213 -0.2045
vn -0.9711 0.1132 0.2102
vn -0.9754 -0.1137 0.1889
vn 0.9653 -0.1229 -0.2303
vn -0.2470 -0.0835 0.9654
vn -0.6309 -0.1479 -0.7616
vn 0.2350 -0.1488 -0.9605
vn 0.6573 -0.0959 0.7475
vn -0.2350 -0.1488 -0.9605
vn 0.2470 -0.0835 0.9654
vn -0.6573 -0.0959 0.7475
vn 0.9754 -0.1137 0.1889
vn 0.6309 -0.1479 -0.7616
vn -0.9633 -0.1352 -0.2321
vn -0.9653 -0.1229 -0.2303
vn 0.9633 -0.1352 -0.2321
vn 0.9403 0.1417 -0.3095
vn -0.9713 0.1213 -0.2045
usemtl マテリアル.003
s off
f 43/1/1 32/2/1 54/3/1
f 38/4/2 8/5/2 33/6/2
f 41/7/3 6/8/3 34/9/3
f 18/10/4 31/11/4 40/12/4
f 28/13/5 5/14/5 14/15/5
f 30/16/6 2/17/6 18/18/6
f 25/19/6 16/20/6 27/21/6
f 26/22/5 20/23/5 29/24/5
f 37/25/7 12/26/7 35/27/7
f 19/28/8 36/29/8 39/30/8
f 34/31/9 16/32/9 37/25/9
f 27/21/6 6/33/6 24/34/6
f 26/22/5 14/15/5 11/35/5
f 36/29/10 13/36/10 38/4/10
f 4/37/11 39/38/11 32/39/11
f 29/24/5 1/40/5 21/41/5
f 25/19/6 18/18/6 12/42/6
f 12/26/12 40/12/12 35/27/12
f 47/43/6 30/16/6 25/19/6
f 45/44/5 29/24/5 21/41/5
f 50/45/5 26/22/5 48/46/5
f 49/47/6 24/34/6 46/48/6
f 51/49/5 26/22/5 29/24/5
f 47/43/6 27/21/6 49/47/6
f 52/50/6 22/51/6 30/16/6
f 44/52/5 28/13/5 50/45/5
f 53/53/13 24/54/13 41/7/13
f 2/55/14 42/56/14 31/57/14
f 31/57/15 21/58/15 1/59/15
f 44/60/16 41/7/16 23/61/16
f 35/27/17 20/62/17 11/63/17
f 32/39/18 17/64/18 3/65/18
f 9/66/19 38/4/19 15/67/19
f 5/68/20 37/69/20 14/70/20
f 39/30/21 9/66/21 17/71/21
f 14/72/22 35/27/22 11/63/22
f 40/12/23 1/73/23 20/62/23
f 23/61/24 34/9/24 5/68/24
f 15/67/25 33/6/25 7/74/25
f 54/3/26 3/75/26 45/76/26
f 42/56/27 45/76/27 21/58/27
f 7/77/28 53/53/28 44/60/28
f 33/78/29 46/79/29 53/53/29
f 7/80/5 50/81/5 15/82/5
f 4/83/6 52/84/6 19/85/6
f 10/86/6 49/87/6 13/88/6
f 17/89/5 48/90/5 51/91/5
f 8/92/6 49/87/6 46/93/6
f 15/82/5 48/90/5 9/94/5
f 3/95/5 51/91/5 45/96/5
f 10/86/6 52/84/6 47/97/6
f 22/98/30 54/3/30 42/56/30
f 43/1/31 4/99/31 32/2/31
f 38/4/32 13/36/32 8/5/32
f 41/7/33 24/54/33 6/8/33
f 18/10/34 2/100/34 31/11/34
f 28/13/5 23/101/5 5/14/5
f 30/16/6 22/51/6 2/17/6
f 25/19/6 12/42/6 16/20/6
f 26/22/5 11/35/5 20/23/5
f 37/25/35 16/32/35 12/26/35
f 19/28/36 10/102/36 36/29/36
f 34/31/37 6/103/37 16/32/37
f 27/21/6 16/20/6 6/33/6
f 26/22/5 28/13/5 14/15/5
f 36/29/38 10/102/38 13/36/38
f 4/37/39 19/104/39 39/38/39
f 29/24/5 20/23/5 1/40/5
f 25/19/6 30/16/6 18/18/6
f 12/26/40 18/10/40 40/12/40
f 47/43/6 52/50/6 30/16/6
f 45/44/5 51/49/5 29/24/5
f 50/45/5 28/13/5 26/22/5
f 49/47/6 27/21/6 24/34/6
f 51/49/5 48/46/5 26/22/5
f 47/43/6 25/19/6 27/21/6
f 52/50/6 43/105/6 22/51/6
f 44/52/5 23/101/5 28/13/5
f 53/53/41 46/79/41 24/54/41
f 2/55/42 22/98/42 42/56/42
f 31/57/43 42/56/43 21/58/43
f 44/60/44 53/53/44 41/7/44
f 35/27/45 40/12/45 20/62/45
f 32/39/46 39/38/46 17/64/46
f 9/66/47 36/29/47 38/4/47
f 5/68/48 34/9/48 37/69/48
f 39/30/49 36/29/49 9/66/49
f 14/72/50 37/25/50 35/27/50
f 40/12/51 31/11/51 1/73/51
f 23/61/52 41/7/52 34/9/52
f 15/67/53 38/4/53 33/6/53
f 54/3/54 32/2/54 3/75/54
f 42/56/55 54/3/55 45/76/55
f 7/77/56 33/78/56 53/53/56
f 33/78/57 8/106/57 46/79/57
f 7/80/5 44/107/5 50/81/5
f 4/83/6 43/108/6 52/84/6
f 10/86/6 47/97/6 49/87/6
f 17/89/5 9/94/5 48/90/5
f 8/92/6 13/88/6 49/87/6
f 15/82/5 50/81/5 48/90/5
f 3/95/5 17/89/5 51/91/5
f 10/86/6 19/85/6 52/84/6
f 22/98/58 43/1/58 54/3/58
